<svg width="200" height="36" viewBox="0 0 200 36" fill="none" xmlns="http://www.w3.org/2000/svg">
<path fill-rule="evenodd" clip-rule="evenodd" d="M166.41 9.41158C164.676 9.41158 163.282 7.92003 163.282 6.00232C163.282 4.11505 164.704 2.56262 166.467 2.56262C168.229 2.56262 169.679 4.05417 169.679 5.94144C169.679 7.85915 168.229 9.41158 166.41 9.41158ZM106.961 29.441H101.786V6.12408H107.046V12.5164C107.046 12.5164 109.377 10.3856 112.419 10.3856C117.565 10.3856 120.607 15.0429 120.607 20.1264C120.607 25.3316 117.508 29.8976 112.59 29.8976C110.287 29.8976 108.581 29.1974 106.961 27.4928V29.441ZM90.4989 29.8976C85.1255 29.8976 81.4294 26.397 81.4294 20.1264C81.4294 14.4646 85.2108 10.3856 90.3568 10.3856C95.3891 10.3856 98.943 13.9471 98.943 20.6134L98.9441 20.7754C98.9455 20.8699 98.9478 20.9557 98.9499 21.0376V21.0377V21.0379V21.038V21.038V21.038V21.0381C98.956 21.2666 98.9613 21.4653 98.943 21.7397H86.6608C87.1156 23.9618 88.7647 25.0272 90.7548 25.0272C92.39 25.0272 93.4944 23.8636 94.3779 22.659L94.5362 22.4398C94.5362 22.4398 97.1143 24.0313 98.3239 24.8094L98.6587 25.0272C97.1234 27.9494 94.1666 29.8976 90.4989 29.8976ZM58.1444 29.441L51.4915 10.7509H57.064L60.5326 21.1005L63.7169 10.7509H67.9531L71.308 21.1613L74.7481 10.7509H80.2353L73.6678 29.441H69.0903L65.8492 19.3958L62.7218 29.441H58.1444ZM90.2999 15.1343C91.9489 15.1343 92.8587 15.9866 93.4842 17.7825H86.8598C87.5137 16.0475 88.5088 15.1343 90.2999 15.1343ZM111.225 15.6213C113.613 15.6213 115.348 17.6303 115.348 20.0046C115.348 22.6529 114.04 24.875 111.453 24.875C108.695 24.875 106.904 23.0182 106.904 20.1264C106.904 17.4172 108.752 15.6213 111.225 15.6213ZM132.037 30.0802C126.692 30.0802 122.598 25.3925 122.598 20.1873C122.598 14.5863 126.777 10.3856 132.15 10.3856C137.439 10.3856 141.561 14.4646 141.561 20.0959C141.561 25.7882 137.723 30.0802 132.037 30.0802ZM132.122 15.7126C134.596 15.7126 136.301 17.5999 136.301 20.0046C136.301 22.9268 134.709 24.7228 132.094 24.7228C129.677 24.7228 127.886 22.7746 127.886 20.2786C127.886 17.7216 129.563 15.7126 132.122 15.7126ZM150.119 29.441L142.812 10.7509H148.726L152.536 21.6788L156.118 10.7509H161.69L154.838 29.441H150.119ZM169.082 29.441V10.7509H163.794V29.441H169.082ZM171.926 20.1873C171.926 25.3925 176.02 30.0802 181.365 30.0802C187.051 30.0802 190.889 25.7882 190.889 20.0959C190.889 14.4646 186.767 10.3856 181.478 10.3856C176.105 10.3856 171.926 14.5863 171.926 20.1873ZM185.629 20.0046C185.629 17.5999 183.923 15.7126 181.45 15.7126C178.891 15.7126 177.214 17.7216 177.214 20.2786C177.214 22.7746 179.005 24.7228 181.422 24.7228C184.037 24.7228 185.629 22.9268 185.629 20.0046Z" fill="white"/>
<path d="M196.064 22.6993C197.855 22.6993 199.333 24.2822 199.333 26.1999C199.333 28.1176 197.855 29.7005 196.064 29.7005C194.272 29.7005 192.794 28.1176 192.794 26.1999C192.794 24.2822 194.272 22.6993 196.064 22.6993Z" fill="#EDB91B"/>
<path fill-rule="evenodd" clip-rule="evenodd" d="M28.5445 31.2095C27.5501 32.9839 24.9962 32.9839 24.0019 31.2095L9.9412 6.11939L38.1614 6.11939C40.1509 6.11939 41.4053 8.26033 40.4327 9.99588L28.5445 31.2095Z" fill="#EDB91B"/>
<path fill-rule="evenodd" clip-rule="evenodd" d="M14.0606 31.2095C15.055 32.9839 17.6089 32.9839 18.6033 31.2095L32.6639 6.11939L4.44372 6.11939C2.45422 6.11939 1.1998 8.26033 2.17241 9.99588L14.0606 31.2095Z" fill="white"/>
<path fill-rule="evenodd" clip-rule="evenodd" d="M9.94116 6.11938H32.6639L21.3033 26.3928L9.94116 6.11938Z" fill="#EEF0E7"/>
</svg>
